<svg xmlns="http://www.w3.org/2000/svg" width="30.019" height="44.499" viewBox="0 0 30.019 44.499">
  <path id="Path_10" data-name="Path 10" d="M614.97,163.337c-.625,1.332-.055.633-1.171,1.47a3.842,3.842,0,0,1-.734.5c-.437.138-.023.033-.445.033-1.195,0-1.523.138-2.538-.568-2.475-1.705.32-3.962,2.374-3.873.5.024.156.073.765.284.5.179.5-.024,1.031.365a1.536,1.536,0,0,1,.719,1.786Zm-5.1-26.99c-1.328,2.728-.281,2.241-.258,4.482a5.882,5.882,0,0,1-1.312,4.011c-1.89,1.933-1.492.438-2.085,3.54a26.538,26.538,0,0,0-.539,7.032l.633,7.259c.523,2.2.914,1.868,2.5,3.11a28.084,28.084,0,0,1,2.8,2.785c.586-.406.422-.5.8-.909.5-.56,2.335-.82,3.194-2.387,1.109-2.014.507-3.841-.976-5.383-.89-.926-1.46-.292-1.827-1.916-.367-1.608.859-1.7.719-2.655-.148-.974-1.468-1.559-.328-4.279.344-.812.476-.447.859-1.007-.219-.95-1.78-2.639.008-4.425s3.8-.008,4.435-1.088a3.449,3.449,0,0,0,.039-2.42c-.234-1.486,1.616-5.651,2.343-6.837,2.749-4.482,4.857-6.585,9.777-8.851a29,29,0,0,1,5.037-1.259c-1.648-1.194-6.02-1.21-7.918-.942-6.918.982-11.416,4.052-15.438,9.776-.429.609-.875.861-1.117,1.372-.742,1.559-.437.723-1.343.991Z" transform="translate(-605.668 -124.067)"/>
</svg>
