<svg xmlns="http://www.w3.org/2000/svg" width="19.657" height="32.094" viewBox="0 0 19.657 32.094">
  <path id="Path_9" data-name="Path 9" d="M316.98,23.481c2.184,0,1.11-.415,2.1-1.117-.115.494-.072,1.661-.5,1.855-.315.136-1.332-.508-1.6-.738ZM309.748,2.8h1.361c.215.029.451.072.716.122,3.91.809,1.224.344,3.337,1.411a10.789,10.789,0,0,0-.05,2.284,9.244,9.244,0,0,0,1.862.652c-.05.609-.43.845-.709,1.267.272.1.63-.036.551.644-.05.394-.358.609-.551.888.888.745.38,1.081-.243,1.711.96.5.337.673.115,1.489.265.3.322.272.215.752-.093.415-.165.508-.494.666,1.046.788-.222,1.984,1.2,2.685,1.776.881,3.136,1.289,2.922,2.793l-.351,4.7,3.609,1.984c.659.3,1.318.444,2.034.766a3.989,3.989,0,0,0,2.184.609,35.5,35.5,0,0,1-1.225,6.323c-1.339.766-2.184.072-3.437-.4l-3.108-1.368c-.967-.587-3.717-2.22-4.9-1.848-.451.136-.773.809-1.031,1.21-1.812,0-1.518-.365-2.915-.859-1.876-.652-1.361-1.067-1.554-1.933l-1.117-.279c.129-.487.594-1.017.666-1.3.215-.859-.279-.537.1-1.411s.243-3.86.215-5.256c-.014-.623-.122-.859-.143-1.4L309,16.921a7.652,7.652,0,0,1,.208-2.456l-.136-5.786a10.056,10.056,0,0,1,.036-1.325c-.029-1.26.093-.573-1.31-1.8.129-.909.516-1.2,1.21-1.21.007-.508-.222-1.325.738-1.547Zm9.331,19.277c-1.812.852-1.468-.1-3.215-.143.258-.573.043-.107.079-.551l.2-2.521C319.974,18.955,319.079,21.34,319.079,22.077Zm-2.936-8.8Z" transform="translate(-307.8 -2.8)"/>
</svg>
