<svg xmlns="http://www.w3.org/2000/svg" width="404.75" height="35.8" viewBox="0 0 404.75 35.8">
  <path id="Path_18" data-name="Path 18" d="M43.5-35.4q6.05,0,9.45,3.5t3.4,10.15V0H51.4V-21.6q0-4.6-2.4-6.975a8.634,8.634,0,0,0-6.35-2.375,9.4,9.4,0,0,0-6.875,2.475Q33.25-26,33.25-20.9V0H28.3V-21.6q0-4.65-2.275-7A8.26,8.26,0,0,0,19.8-30.95a9.587,9.587,0,0,0-6.975,2.5q-2.575,2.5-2.575,7.55V0h-5V-35h4.8v5.1a10.6,10.6,0,0,1,4.375-4.05A14.209,14.209,0,0,1,21-35.4a13.779,13.779,0,0,1,6.725,1.55,9.717,9.717,0,0,1,4.175,4.3,11.08,11.08,0,0,1,4.675-4.325A15.177,15.177,0,0,1,43.5-35.4Zm31.75,4.75v26.3H82V0H63.5V-4.35h6.75v-26.3H63.5V-35H82v4.35ZM112.8,0l-7.55-10.75q-1.4.1-2.2.1H94.4V0h-5V-35h13.65q6.8,0,10.7,3.25a11.022,11.022,0,0,1,3.9,8.95,11.707,11.707,0,0,1-2,6.9,11.3,11.3,0,0,1-5.7,4.15L118.25,0Zm-9.9-14.9q4.75,0,7.25-2.05a7.134,7.134,0,0,0,2.5-5.85,7.062,7.062,0,0,0-2.5-5.825q-2.5-2.025-7.25-2.025H94.4V-14.9Zm37.55-20.5q7,0,11.05,4.075t4.05,11.675V0h-5V-9.65h-20.2V0h-4.9V-19.65q0-7.6,4.05-11.675T140.45-35.4ZM150.55-14v-6.1q0-5.35-2.675-8.1a9.879,9.879,0,0,0-7.425-2.75,9.879,9.879,0,0,0-7.425,2.75q-2.675,2.75-2.675,8.1V-14ZM190-17.7h4.8V0h-4.4V-2.35A16.364,16.364,0,0,1,180.65.4a18.982,18.982,0,0,1-8.825-2.1,16.064,16.064,0,0,1-6.5-6.125A18.107,18.107,0,0,1,162.9-17.35a17.919,17.919,0,0,1,2.425-9.3,17.14,17.14,0,0,1,6.7-6.425A19.814,19.814,0,0,1,181.65-35.4a20.3,20.3,0,0,1,7.625,1.375A15.565,15.565,0,0,1,195.1-30L192-26.9a14.091,14.091,0,0,0-10.15-4.05,14.614,14.614,0,0,0-7.175,1.75,12.769,12.769,0,0,0-4.975,4.85,13.683,13.683,0,0,0-1.8,7,13.759,13.759,0,0,0,1.825,7.2,12.127,12.127,0,0,0,4.825,4.625,13.773,13.773,0,0,0,6.5,1.575,14.178,14.178,0,0,0,4.775-.825A12.94,12.94,0,0,0,190-7.2ZM230.4-3.65a16.072,16.072,0,0,1-5.9,2.975A28.041,28.041,0,0,1,216.55.4,22.989,22.989,0,0,1,208.4-.875,11.049,11.049,0,0,1,203.35-4.4a8.391,8.391,0,0,1-1.7-5.2,8.075,8.075,0,0,1,1.725-5.175A9.559,9.559,0,0,1,207.85-17.9a7.71,7.71,0,0,1-3.45-3.025,8.717,8.717,0,0,1-1.25-4.675,8.3,8.3,0,0,1,1.575-4.95,10.717,10.717,0,0,1,4.775-3.525,20.4,20.4,0,0,1,7.8-1.325,28.407,28.407,0,0,1,6.325.7,19.054,19.054,0,0,1,5.325,2l-1.45,4a20.912,20.912,0,0,0-10-2.4q-4.55,0-6.95,1.625a4.913,4.913,0,0,0-2.4,4.225,4.717,4.717,0,0,0,1.85,4,8.651,8.651,0,0,0,5.3,1.4h9v4.3h-9.2a11.7,11.7,0,0,0-6.2,1.4,4.622,4.622,0,0,0-2.25,4.2A4.994,4.994,0,0,0,209.2-5.5q2.55,1.6,7.6,1.6a22.612,22.612,0,0,0,6.675-.975A14.974,14.974,0,0,0,228.7-7.55Zm29.1-23.8a26.964,26.964,0,0,0-10.9-3.45V0h-4.95V-30.9a27.024,27.024,0,0,0-10.95,3.45l-1.75-3.95a28.887,28.887,0,0,1,15.1-4,29.077,29.077,0,0,1,15.2,4ZM289.7,0l-7.55-10.75q-1.4.1-2.2.1H271.3V0h-5V-35h13.65q6.8,0,10.7,3.25a11.022,11.022,0,0,1,3.9,8.95,11.706,11.706,0,0,1-2,6.9,11.3,11.3,0,0,1-5.7,4.15L295.15,0Zm-9.9-14.9q4.75,0,7.25-2.05a7.134,7.134,0,0,0,2.5-5.85,7.062,7.062,0,0,0-2.5-5.825q-2.5-2.025-7.25-2.025h-8.5V-14.9Zm37.55-20.5q7,0,11.05,4.075t4.05,11.675V0h-5V-9.65h-20.2V0h-4.9V-19.65q0-7.6,4.05-11.675T317.35-35.4ZM327.45-14v-6.1q0-5.35-2.675-8.1a9.879,9.879,0,0,0-7.425-2.75,9.879,9.879,0,0,0-7.425,2.75q-2.675,2.75-2.675,8.1V-14Zm15.2-21H357.4a21.325,21.325,0,0,1,9.85,2.2,16.163,16.163,0,0,1,6.675,6.175A17.445,17.445,0,0,1,376.3-17.5a17.445,17.445,0,0,1-2.375,9.125A16.163,16.163,0,0,1,367.25-2.2,21.325,21.325,0,0,1,357.4,0H342.65ZM357.1-4.35A16.193,16.193,0,0,0,364.575-6a11.928,11.928,0,0,0,4.975-4.625A13.305,13.305,0,0,0,371.3-17.5a13.305,13.305,0,0,0-1.75-6.875A11.928,11.928,0,0,0,364.575-29a16.193,16.193,0,0,0-7.475-1.65h-9.45v26.3Zm52.9.7a16.072,16.072,0,0,1-5.9,2.975A28.04,28.04,0,0,1,396.15.4,22.99,22.99,0,0,1,388-.875,11.049,11.049,0,0,1,382.95-4.4a8.391,8.391,0,0,1-1.7-5.2,8.075,8.075,0,0,1,1.725-5.175A9.559,9.559,0,0,1,387.45-17.9,7.71,7.71,0,0,1,384-20.925a8.717,8.717,0,0,1-1.25-4.675,8.3,8.3,0,0,1,1.575-4.95,10.717,10.717,0,0,1,4.775-3.525,20.4,20.4,0,0,1,7.8-1.325,28.407,28.407,0,0,1,6.325.7,19.054,19.054,0,0,1,5.325,2l-1.45,4a20.912,20.912,0,0,0-10-2.4q-4.55,0-6.95,1.625a4.913,4.913,0,0,0-2.4,4.225,4.717,4.717,0,0,0,1.85,4,8.651,8.651,0,0,0,5.3,1.4h9v4.3h-9.2a11.7,11.7,0,0,0-6.2,1.4,4.622,4.622,0,0,0-2.25,4.2A4.994,4.994,0,0,0,388.8-5.5q2.55,1.6,7.6,1.6a22.612,22.612,0,0,0,6.675-.975A14.974,14.974,0,0,0,408.3-7.55Z" transform="translate(-5.25 35.4)" fill="#fdfdfd"/>
</svg>
